<svg width="30" height="30" viewBox="0 0 30 30" fill="none" xmlns="http://www.w3.org/2000/svg">
<rect width="30" height="30" rx="15" fill="#4BAD4C"/>
<path d="M12.5034 15.0384C12.5034 13.6565 13.623 12.536 15.0045 12.536C16.386 12.536 17.5062 13.6565 17.5062 15.0384C17.5062 16.4203 16.386 17.5408 15.0045 17.5408C13.623 17.5408 12.5034 16.4203 12.5034 15.0384ZM11.151 15.0384C11.151 17.1673 12.8762 18.893 15.0045 18.893C17.1328 18.893 18.858 17.1673 18.858 15.0384C18.858 12.9095 17.1328 11.1838 15.0045 11.1838C12.8762 11.1838 11.151 12.9095 11.151 15.0384ZM18.11 11.031C18.1099 11.2091 18.1627 11.3833 18.2616 11.5315C18.3604 11.6797 18.501 11.7952 18.6656 11.8634C18.8301 11.9317 19.0112 11.9496 19.1859 11.9149C19.3606 11.8802 19.5211 11.7945 19.647 11.6686C19.773 11.5426 19.8589 11.3822 19.8937 11.2074C19.9285 11.0327 19.9107 10.8516 19.8426 10.687C19.7746 10.5223 19.6592 10.3816 19.5111 10.2826C19.3631 10.1835 19.189 10.1306 19.0109 10.1305H19.0105C18.7718 10.1307 18.5428 10.2255 18.374 10.3944C18.2051 10.5632 18.1102 10.7922 18.11 11.031V11.031ZM11.9727 21.1487C11.241 21.1153 10.8433 20.9934 10.5791 20.8904C10.2287 20.754 9.97871 20.5915 9.71587 20.3289C9.45303 20.0664 9.29033 19.8165 9.15453 19.4661C9.05151 19.2018 8.92964 18.8039 8.89638 18.0721C8.86 17.2808 8.85273 17.0431 8.85273 15.0385C8.85273 13.0338 8.8606 12.7968 8.89638 12.0049C8.9297 11.273 9.05247 10.8759 9.15453 10.6109C9.29093 10.2604 9.45339 10.0103 9.71587 9.74741C9.97835 9.48449 10.2281 9.32175 10.5791 9.18591C10.8432 9.08286 11.241 8.96095 11.9727 8.92768C12.7637 8.89129 13.0013 8.88402 15.0045 8.88402C17.0077 8.88402 17.2455 8.89189 18.0372 8.92768C18.7689 8.96101 19.1659 9.08382 19.4308 9.18591C19.7812 9.32175 20.0312 9.48485 20.294 9.74741C20.5569 10.01 20.719 10.2604 20.8554 10.6109C20.9584 10.8751 21.0803 11.273 21.1135 12.0049C21.1499 12.7968 21.1572 13.0338 21.1572 15.0385C21.1572 17.0431 21.1499 17.2801 21.1135 18.0721C21.0802 18.8039 20.9577 19.2017 20.8554 19.4661C20.719 19.8165 20.5565 20.0666 20.294 20.3289C20.0316 20.5912 19.7812 20.754 19.4308 20.8904C19.1667 20.9935 18.7689 21.1154 18.0372 21.1487C17.2462 21.185 17.0086 21.1923 15.0045 21.1923C13.0004 21.1923 12.7635 21.185 11.9727 21.1487V21.1487ZM11.9105 7.5772C11.1116 7.61359 10.5657 7.7403 10.089 7.92587C9.59526 8.1175 9.17729 8.37459 8.75962 8.79172C8.34194 9.20885 8.08559 9.6276 7.89402 10.1215C7.70851 10.5987 7.58183 11.1444 7.54545 11.9436C7.50847 12.7439 7.5 12.9998 7.5 15.0384C7.5 17.077 7.50847 17.3329 7.54545 18.1333C7.58183 18.9324 7.70851 19.4781 7.89402 19.9553C8.08559 20.4489 8.342 20.8681 8.75962 21.2851C9.17723 21.702 9.59526 21.9588 10.089 22.1509C10.5666 22.3365 11.1116 22.4632 11.9105 22.4996C12.7111 22.536 12.9665 22.5451 15.0045 22.5451C17.0425 22.5451 17.2983 22.5366 18.0985 22.4996C18.8974 22.4632 19.443 22.3365 19.92 22.1509C20.4134 21.9588 20.8317 21.7022 21.2494 21.2851C21.6671 20.868 21.9229 20.4489 22.115 19.9553C22.3005 19.4781 22.4278 18.9324 22.4636 18.1333C22.4999 17.3323 22.5084 17.077 22.5084 15.0384C22.5084 12.9998 22.4999 12.7439 22.4636 11.9436C22.4272 11.1444 22.3005 10.5984 22.115 10.1215C21.9229 9.6279 21.6664 9.20951 21.2494 8.79172C20.8324 8.37393 20.4134 8.1175 19.9206 7.92587C19.443 7.7403 18.8974 7.61299 18.0991 7.5772C17.2989 7.54081 17.0431 7.53174 15.0051 7.53174C12.9671 7.53174 12.7111 7.54021 11.9105 7.5772Z" fill="white"/>
</svg>
