<svg width="30" height="30" viewBox="0 0 30 30" fill="none" xmlns="http://www.w3.org/2000/svg">
<rect width="30" height="30" rx="15" fill="#4BAD4C"/>
<path d="M11.5491 21.0792V12.9754H8.85785V21.0792H11.5493H11.5491ZM10.204 11.8691C11.1423 11.8691 11.7264 11.2468 11.7264 10.4692C11.7089 9.67376 11.1423 9.06885 10.2219 9.06885C9.30079 9.06885 8.69922 9.67376 8.69922 10.4691C8.69922 11.2468 9.28315 11.869 10.1864 11.869H10.2038L10.204 11.8691ZM13.0387 21.0792H15.7297V16.5542C15.7297 16.3123 15.7472 16.0698 15.8183 15.897C16.0128 15.4129 16.4556 14.9118 17.1992 14.9118C18.1728 14.9118 18.5624 15.6548 18.5624 16.7444V21.0792H21.2534V16.4327C21.2534 13.9437 19.9259 12.7854 18.1553 12.7854C16.7037 12.7854 16.0662 13.5974 15.712 14.1505H15.7299V12.9757H13.0388C13.0739 13.7359 13.0386 21.0795 13.0386 21.0795L13.0387 21.0792Z" fill="white"/>
</svg>
