<svg xmlns="http://www.w3.org/2000/svg" xmlns:xlink="http://www.w3.org/1999/xlink" viewBox="0 0 490.11 450"><defs><style>.cls-1{fill:url(#linear-gradient);}.cls-2{fill:url(#linear-gradient-2);}.cls-3{fill:url(#linear-gradient-3);}.cls-4{fill:#4eb55b;}.cls-5{fill:#515457;}</style><linearGradient id="linear-gradient" x1="172.34" y1="167.51" x2="320.25" y2="167.51" gradientUnits="userSpaceOnUse"><stop offset="0" stop-color="#f79331"/><stop offset="0.51" stop-color="#f7ec3d"/><stop offset="1" stop-color="#f79331"/></linearGradient><linearGradient id="linear-gradient-2" x1="211.07" y1="132.37" x2="364.82" y2="132.37" gradientUnits="userSpaceOnUse"><stop offset="0.51" stop-color="#8ac65b"/><stop offset="1" stop-color="#4db45a"/></linearGradient><linearGradient id="linear-gradient-3" x1="6464.85" y1="6489.18" x2="6618.6" y2="6489.18" gradientTransform="translate(6746.6 6691.7) rotate(180)" gradientUnits="userSpaceOnUse"><stop offset="0" stop-color="#8ac65b"/><stop offset="1" stop-color="#4db45a"/></linearGradient></defs><g id="Layer_2" data-name="Layer 2"><g id="Layer_1-2" data-name="Layer 1"><path class="cls-1" d="M320.25,230.55c0,.6,0,1.21,0,1.8,0,.16,0,.31,0,.48s0,.31,0,.46c0,.48,0,1-.07,1.44s0,.77-.08,1.15-.07.86-.12,1.28-.08.83-.13,1.25-.08.68-.13,1-.05.43-.09.64l-.15,1c-.08.52-.17,1-.26,1.55s-.22,1.19-.35,1.79-.21,1-.32,1.48c-.26,1.12-.54,2.22-.84,3.29q-.13.5-.27,1c-.46,1.59-1,3.13-1.51,4.63-.18.48-.36,1-.55,1.44-.07.21-.16.42-.24.63s-.2.53-.32.78-.29.73-.44,1.09-.31.72-.47,1.07c-.31.71-.63,1.4-1,2.08-.12.25-.24.51-.37.75-1.14,2.36-2.35,4.55-3.56,6.56-.13.22-.26.44-.4.65q-1,1.61-1.95,3c-.14.22-.29.43-.44.65l-.95,1.35a.77.77,0,0,0-.1.15l0,0,0,0h0a0,0,0,0,1,0,0v0c-.46.62-.91,1.23-1.34,1.79s-.72.9-1.06,1.32-.48.59-.72.86c-1,1.15-1.83,2.09-2.54,2.8l-.49.5-.75.75-.93.93-2.34,2.34-1.13,1.13-.61.61-2,2L289.33,292l-2.95,2.95-3.21,3.21-1.8,1.8-1.85,1.84-3.83,3.84-3,3a47.12,47.12,0,0,0,.68-66,30,30,0,0,0,2.49-11.54c0-.49,0-1-.05-1.48,0,0,0,0,0,0a27.28,27.28,0,0,0-4.31-12.92h0c-4.24-6.82-12-14.06-25.23-21.39l-1.66-1A240.27,240.27,0,0,1,218.49,178h0A153.26,153.26,0,0,1,195.71,158a97.38,97.38,0,0,1-15.65-22.11,69.22,69.22,0,0,1-7.72-31.44c0-.6,0-1.2,0-1.8s0-.89,0-1.33a1.15,1.15,0,0,1,0-.19c0-.24,0-.49.05-.73a6.64,6.64,0,0,1,.05-.77,4.91,4.91,0,0,1,0-.67c.09-1.14.21-2.27.35-3.37.07-.51.15-1,.22-1.51,0-.13.05-.27.06-.39.08-.47.16-.93.23-1.38a.19.19,0,0,0,0-.07c.1-.55.2-1.08.31-1.61h0q.17-.81.36-1.62c.25-1.11.53-2.2.83-3.28.14-.48.27-1,.42-1.43,0-.15.09-.31.14-.46.19-.63.39-1.25.59-1.86l.39-1.1c.12-.35.24-.7.37-1s.36-1,.54-1.42h0c.18-.47.37-.93.55-1.38a84.61,84.61,0,0,1,6.34-12.33l.6-.94c.66-1,1.3-2,1.94-2.88l.53-.76,0-.07.05,0a.14.14,0,0,1,0-.05c1.17-1.62,2.29-3,3.29-4.21l.87-1L220,26.43a47.13,47.13,0,0,0-.68,65.72h0a30,30,0,0,0-2.6,11.81c0,.6,0,1.2.06,1.8h0A27.1,27.1,0,0,0,220.85,118h0c4.19,6.93,12,14.28,25.45,21.73.54.33,1.09.65,1.65,1a240.51,240.51,0,0,1,25.95,16.2,154,154,0,0,1,22.81,19.89,97.32,97.32,0,0,1,15.91,22.46h0c.52,1,1,2.06,1.46,3.09.31.68.6,1.36.88,2,.14.34.28.67.41,1,.44,1.1.84,2.2,1.21,3.28.19.55.36,1.09.53,1.62.12.38.24.75.34,1.13s.2.66.29,1c.41,1.44.77,2.87,1.06,4.3.11.52.22,1,.32,1.57.05.26.09.5.13.76s.12.67.17,1,.12.76.17,1.13.1.63.13,1,.08.56.1.84.05.41.08.63.06.62.08.94c.07.69.12,1.38.15,2.06C320.22,228,320.25,229.26,320.25,230.55Z"/><path class="cls-2" d="M364.82,167.44a118,118,0,0,1-34.67,83.73l-13.58,13.58a89.83,89.83,0,0,0,7.28-22.25h0c5.85-14,10.58-31.26,9.61-49.74-1.42-27.23-14.87-50.67-25.12-64.78,0,0,0,0,0,0a74.12,74.12,0,0,0-9.36-11.8l-.62-.62-.63-.63-.76-.75-.11-.11-.22-.22-22.4-22.41L246.41,63.57,222.59,87.4a9.59,9.59,0,0,0-.81.88c-5.35-6.81-10.23-15.82-10.66-26.26-1-23.79,16-38.55,35.29-62l26.31,26.3,56.42,56.41,1,1,1,1A118.09,118.09,0,0,1,364.82,167.44Z"/><path class="cls-3" d="M128,167.45a118.05,118.05,0,0,1,34.68-83.73l13.57-13.57A90.67,90.67,0,0,0,169,92.4h0c-5.86,14-10.58,31.26-9.62,49.74,1.43,27.23,14.88,50.67,25.12,64.78l0,0a73.56,73.56,0,0,0,9.36,11.8l.62.62.62.63.77.75.11.11.22.22,22.39,22.41,27.82,27.81,23.82-23.82c.29-.29.56-.58.82-.88,5.34,6.81,10.23,15.81,10.66,26.26,1,23.79-16,38.55-35.3,62L220.1,308.6l-56.41-56.42-1-1-1-1A118,118,0,0,1,128,167.45Z"/><path class="cls-4" d="M43.56,386.39v18.94A22.09,22.09,0,0,1,35.75,410a33,33,0,0,1-11.25,1.75,31,31,0,0,1-10.14-1.57,22.18,22.18,0,0,1-7.72-4.47,19.31,19.31,0,0,1-4.92-7A23.8,23.8,0,0,1,0,389.4a24.1,24.1,0,0,1,1.72-9.29,19.87,19.87,0,0,1,4.83-7.06A21.44,21.44,0,0,1,14,368.59,28.18,28.18,0,0,1,23.65,367a30.39,30.39,0,0,1,10.65,1.66,23.49,23.49,0,0,1,7.63,4.55l-6.7,7.43a14.07,14.07,0,0,0-5-2.75,20.34,20.34,0,0,0-6.43-1,15.06,15.06,0,0,0-5.25.88,11.27,11.27,0,0,0-4,2.5A11.11,11.11,0,0,0,12,384.22a13.83,13.83,0,0,0-.91,5.18c0,4.11,1.25,7.25,3.74,9.45s5.89,3.28,10.2,3.28a23,23,0,0,0,4.73-.45,11.78,11.78,0,0,0,4-1.66v-4.64H21.66v-9Z"/><path class="cls-4" d="M49.55,367.93H82v9.35H59.81v8.08H78.45v8.75H59.81v7.36H82.73v9.35H49.55Z"/><path class="cls-4" d="M101.11,377.82H88v-9.89h36.86v9.89h-13v33h-10.8Z"/><path class="cls-4" d="M131.52,367.93h32.4v9.35H141.77v8.08h18.65v8.75H141.77v7.36H164.7v9.35H131.52Z"/><path class="cls-4" d="M199.43,410.82l-8.93-14.18-8.69,14.18H169.32l13.88-21.9-13.34-21h12.43l8.39,13.75,8.45-13.75h12.18l-13.21,21,13.82,21.9Z"/><path class="cls-4" d="M232.08,367.93h32.4v9.35H242.33v8.08H261v8.75H242.33v7.36h22.93v9.35H232.08Z"/><path class="cls-4" d="M310.27,367.93v43h-5.43l-23.65-23.77v23.65h-10.5v-43h5.37l23.71,23.72V367.93Z"/><path class="cls-4" d="M317.45,367.93h32.4v9.35H327.7v8.08h18.65v8.75H327.7v7.36h22.93v9.35H317.45Z"/><path class="cls-4" d="M383.25,410.82l-7.73-11.28H369v11.28H358.39V367.93h17.74q9,0,13.63,4t4.65,11.76a16.2,16.2,0,0,1-2.08,8.54,13.44,13.44,0,0,1-6,5.22l9.78,13.33ZM369,390.73h6.15a12.12,12.12,0,0,0,3.74-.51,7.31,7.31,0,0,0,2.57-1.39,5.23,5.23,0,0,0,1.44-2,6.5,6.5,0,0,0,.46-2.47,7.38,7.38,0,0,0-1.81-5.43q-1.81-1.82-6.1-1.81H369Z"/><path class="cls-4" d="M444.76,386.39v18.94A22,22,0,0,1,437,410a33,33,0,0,1-11.25,1.75,31,31,0,0,1-10.14-1.57,22.18,22.18,0,0,1-7.72-4.47,19.31,19.31,0,0,1-4.92-7,23.8,23.8,0,0,1-1.72-9.26,24.1,24.1,0,0,1,1.72-9.29,19.87,19.87,0,0,1,4.83-7.06,21.44,21.44,0,0,1,7.48-4.46,28.18,28.18,0,0,1,9.62-1.57,30.39,30.39,0,0,1,10.65,1.66,23.49,23.49,0,0,1,7.63,4.55l-6.7,7.43a14.07,14.07,0,0,0-5-2.75,20.34,20.34,0,0,0-6.43-1,15.06,15.06,0,0,0-5.25.88,11.27,11.27,0,0,0-4,2.5,11.11,11.11,0,0,0-2.56,3.93,13.83,13.83,0,0,0-.91,5.18c0,4.11,1.25,7.25,3.74,9.45s5.89,3.28,10.2,3.28a23,23,0,0,0,4.73-.45,11.78,11.78,0,0,0,4-1.66v-4.64H422.86v-9Z"/><path class="cls-4" d="M474.42,395.8v15h-10.8v-15l-15.69-27.93H460.3l8.75,17.49,8.87-17.49h12.19Z"/><path class="cls-5" d="M124.44,449.66v-21.4H127l8,11.4h-1.32l7.95-11.4h2.59v21.4h-2.85V431.82l1,.32-8,11.2h-.23l-7.86-11.2.89-.32v17.84Z"/><path class="cls-5" d="M153.22,450a6.19,6.19,0,0,1-2.69-.56,4.46,4.46,0,0,1-1.82-1.55,4,4,0,0,1-.66-2.28,4.68,4.68,0,0,1,.53-2.23,4.4,4.4,0,0,1,1.67-1.68,8.08,8.08,0,0,1,2.85-1l5.75-.94V442l-5.14.86a3.88,3.88,0,0,0-2.17.95,2.31,2.31,0,0,0-.68,1.69,2,2,0,0,0,.76,1.58,2.91,2.91,0,0,0,1.91.63,5,5,0,0,0,2.55-.62,4.59,4.59,0,0,0,2.31-4v-3.94a2.55,2.55,0,0,0-.94-2.05,3.64,3.64,0,0,0-2.45-.79,4.15,4.15,0,0,0-2.34.68,4.05,4.05,0,0,0-1.51,1.79l-2.33-1.21a5.32,5.32,0,0,1,1.38-1.91,7.12,7.12,0,0,1,2.21-1.33,7.24,7.24,0,0,1,2.65-.49,6.93,6.93,0,0,1,3.13.68,5.24,5.24,0,0,1,2.11,1.86,5.11,5.11,0,0,1,.76,2.77v10.52h-2.61v-2.93l.48.17a5.2,5.2,0,0,1-1.32,1.61,6.36,6.36,0,0,1-2,1.09A7.14,7.14,0,0,1,153.22,450Z"/><path class="cls-5" d="M165.19,449.66V427.91h2.68v14.91l-1.1-.26,8.22-8.38h3.42l-5.95,6.23,6.35,9.25h-3.16l-5.8-8.39,1.66-.09L167,445.89l.87-1.95v5.72Z"/><path class="cls-5" d="M188.06,450a7.42,7.42,0,0,1-6.75-4,8.55,8.55,0,0,1-1-4.15,8.44,8.44,0,0,1,1-4.13,7.51,7.51,0,0,1,2.7-2.86,7.66,7.66,0,0,1,6.89-.43,6.91,6.91,0,0,1,2.27,1.66,7.56,7.56,0,0,1,1.44,2.39,7.9,7.9,0,0,1,.5,2.77,6,6,0,0,1,0,.7c0,.26-.06.51-.1.74h-12.7v-2.3H193.4l-1.27,1a4.31,4.31,0,0,0-1.89-4.54,4.33,4.33,0,0,0-2.41-.69,4.58,4.58,0,0,0-4.21,2.66,6,6,0,0,0-.5,3,5.6,5.6,0,0,0,.53,3,4.7,4.7,0,0,0,1.83,2,5.15,5.15,0,0,0,2.6.7,4.56,4.56,0,0,0,2.62-.72,5.61,5.61,0,0,0,1.72-1.84l2.24,1.15a5.68,5.68,0,0,1-1.42,1.94,7.33,7.33,0,0,1-2.27,1.39A7.73,7.73,0,0,1,188.06,450Z"/><path class="cls-5" d="M208.07,450a6.14,6.14,0,0,1-2.68-.56,4.43,4.43,0,0,1-1.83-1.55,4,4,0,0,1-.66-2.28,4.68,4.68,0,0,1,.53-2.23,4.48,4.48,0,0,1,1.67-1.68,8.21,8.21,0,0,1,2.86-1l5.74-.94V442l-5.14.86a3.88,3.88,0,0,0-2.17.95,2.3,2.3,0,0,0-.67,1.69,2,2,0,0,0,.76,1.58,2.89,2.89,0,0,0,1.91.63,5,5,0,0,0,2.54-.62,4.59,4.59,0,0,0,2.31-4v-3.94a2.57,2.57,0,0,0-.93-2.05,3.65,3.65,0,0,0-2.46-.79,4.15,4.15,0,0,0-2.34.68,4.05,4.05,0,0,0-1.51,1.79l-2.32-1.21a5.21,5.21,0,0,1,1.38-1.91,7.39,7.39,0,0,1,4.85-1.82,6.9,6.9,0,0,1,3.13.68,5.24,5.24,0,0,1,2.11,1.86,5,5,0,0,1,.76,2.77v10.52H213.3v-2.93l.49.17a5.5,5.5,0,0,1-1.32,1.61,6.53,6.53,0,0,1-2,1.09A7.1,7.1,0,0,1,208.07,450Z"/><path class="cls-5" d="M225.33,449.66v-21.4h7a11.63,11.63,0,0,1,5.66,1.32,9.21,9.21,0,0,1,3.73,3.72,12.69,12.69,0,0,1,0,11.27,9.29,9.29,0,0,1-3.73,3.75,11.53,11.53,0,0,1-5.66,1.34Zm2.82-2.59h4.22a8.09,8.09,0,0,0,4.12-1,6.93,6.93,0,0,0,2.69-2.83,9.24,9.24,0,0,0,.94-4.3,9.11,9.11,0,0,0-1-4.31,6.93,6.93,0,0,0-2.7-2.8,8.12,8.12,0,0,0-4.09-1h-4.22Z"/><path class="cls-5" d="M246.3,431.71v-3.45H249v3.45Zm0,18V434.18H249v15.48Z"/><path class="cls-5" d="M254.74,449.66V436.73h-3v-2.55h3v-1.1a5.2,5.2,0,0,1,.73-2.81,4.73,4.73,0,0,1,2-1.75,6.59,6.59,0,0,1,4.06-.46v2.38a2.74,2.74,0,0,0-.55-.07h-.48a3.53,3.53,0,0,0-2.17.63,2.43,2.43,0,0,0-.85,2.09v1.1h8v2.55h-8v12.93Zm11.14,0V436.73h-3v-2.55h3v-1.1a5.19,5.19,0,0,1,.72-2.81,4.68,4.68,0,0,1,1.94-1.75,6.13,6.13,0,0,1,2.74-.61,6.22,6.22,0,0,1,.68,0,5.83,5.83,0,0,1,.64.1v2.38a2.63,2.63,0,0,0-.54-.07h-.46a3.61,3.61,0,0,0-2.2.63,2.45,2.45,0,0,0-.84,2.09v1.1h3.67v2.55h-3.67v12.93Z"/><path class="cls-5" d="M282.05,450a7.45,7.45,0,0,1-6.75-4,8.55,8.55,0,0,1-1-4.15,8.44,8.44,0,0,1,1-4.13,7.51,7.51,0,0,1,2.7-2.86,7.66,7.66,0,0,1,6.89-.43,6.91,6.91,0,0,1,2.27,1.66,7.74,7.74,0,0,1,1.44,2.39,7.9,7.9,0,0,1,.5,2.77,6,6,0,0,1,0,.7c0,.26-.07.51-.1.74h-12.7v-2.3H287.4l-1.27,1a4.33,4.33,0,0,0-4.31-5.23,4.55,4.55,0,0,0-4.2,2.66,6,6,0,0,0-.51,3,5.6,5.6,0,0,0,.54,3,4.7,4.7,0,0,0,1.83,2,5.12,5.12,0,0,0,2.6.7,4.56,4.56,0,0,0,2.62-.72,5.72,5.72,0,0,0,1.72-1.84l2.24,1.15a5.68,5.68,0,0,1-1.42,1.94,7.33,7.33,0,0,1-2.27,1.39A7.75,7.75,0,0,1,282.05,450Z"/><path class="cls-5" d="M292.56,449.66V434.18h2.62V437l-.29-.4a3.89,3.89,0,0,1,1.67-2,5.34,5.34,0,0,1,2.72-.65h1v2.53h-1.35a3.54,3.54,0,0,0-2.64,1,3.94,3.94,0,0,0-1,2.89v9.22Z"/><path class="cls-5" d="M309.74,450a7.45,7.45,0,0,1-6.75-4,8.55,8.55,0,0,1-1-4.15,8.33,8.33,0,0,1,1-4.13,7.51,7.51,0,0,1,2.7-2.86,7.13,7.13,0,0,1,3.83-1.05,7.24,7.24,0,0,1,3.06.62,7,7,0,0,1,2.27,1.66,7.53,7.53,0,0,1,1.43,2.39,7.68,7.68,0,0,1,.51,2.77,6.21,6.21,0,0,1,0,.7c0,.26-.06.51-.1.74H303.94v-2.3h11.14l-1.26,1a4.48,4.48,0,0,0-.29-2.67,4.34,4.34,0,0,0-4-2.56,4.58,4.58,0,0,0-4.21,2.66,6,6,0,0,0-.5,3,5.6,5.6,0,0,0,.53,3,4.66,4.66,0,0,0,1.84,2,5.09,5.09,0,0,0,2.6.7,4.55,4.55,0,0,0,2.61-.72A5.61,5.61,0,0,0,314.1,445l2.24,1.15a5.55,5.55,0,0,1-1.42,1.94,7.33,7.33,0,0,1-2.27,1.39A7.73,7.73,0,0,1,309.74,450Z"/><path class="cls-5" d="M320.25,449.66V434.18h2.61v3l-.43-.26a4.69,4.69,0,0,1,1.85-2.28,5.45,5.45,0,0,1,3-.82,5.85,5.85,0,0,1,3,.75,5.49,5.49,0,0,1,2.07,2.07,5.92,5.92,0,0,1,.76,3v10h-2.7v-9.17a4.78,4.78,0,0,0-.46-2.18,3.38,3.38,0,0,0-1.31-1.39,3.67,3.67,0,0,0-1.94-.5,3.72,3.72,0,0,0-1.94.5,3.48,3.48,0,0,0-1.33,1.41,4.42,4.42,0,0,0-.49,2.16v9.17Z"/><path class="cls-5" d="M344.09,450a7.66,7.66,0,0,1-4-1.06,7.57,7.57,0,0,1-2.77-2.9,8.51,8.51,0,0,1-1-4.14,8.33,8.33,0,0,1,1-4.13,7.59,7.59,0,0,1,2.77-2.88,7.76,7.76,0,0,1,4-1.06,7.26,7.26,0,0,1,2.84.55,7.85,7.85,0,0,1,2.33,1.46,5.45,5.45,0,0,1,1.46,2.16l-2.38,1.14a4.66,4.66,0,0,0-1.67-2,4.45,4.45,0,0,0-2.58-.76,4.75,4.75,0,0,0-2.55.71,5.14,5.14,0,0,0-1.79,2,6.35,6.35,0,0,0,0,5.64,5.17,5.17,0,0,0,1.79,2,4.68,4.68,0,0,0,2.55.72,4.46,4.46,0,0,0,2.58-.77,4.59,4.59,0,0,0,1.67-2l2.38,1.21a5.76,5.76,0,0,1-1.46,2.14,7.68,7.68,0,0,1-2.33,1.47A7.26,7.26,0,0,1,344.09,450Z"/><path class="cls-5" d="M361.35,450a7.45,7.45,0,0,1-6.75-4,8.55,8.55,0,0,1-1-4.15,8.44,8.44,0,0,1,1-4.13,7.51,7.51,0,0,1,2.7-2.86,7.68,7.68,0,0,1,6.9-.43,7,7,0,0,1,2.27,1.66,7.53,7.53,0,0,1,1.43,2.39,7.68,7.68,0,0,1,.5,2.77,6,6,0,0,1,0,.7c0,.26-.06.51-.1.74H355.55v-2.3h11.14l-1.26,1a4.34,4.34,0,0,0-1.9-4.54,4.33,4.33,0,0,0-2.41-.69,4.58,4.58,0,0,0-4.21,2.66,6,6,0,0,0-.5,3,5.6,5.6,0,0,0,.53,3,4.66,4.66,0,0,0,1.84,2,5.09,5.09,0,0,0,2.6.7,4.55,4.55,0,0,0,2.61-.72,5.61,5.61,0,0,0,1.72-1.84l2.24,1.15a5.55,5.55,0,0,1-1.42,1.94,7.33,7.33,0,0,1-2.27,1.39A7.73,7.73,0,0,1,361.35,450Z"/></g></g></svg>