<svg width="30" height="30" viewBox="0 0 30 30" fill="none" xmlns="http://www.w3.org/2000/svg">
<rect width="30" height="30" rx="15" fill="#4BAD4C"/>
<path d="M10.4325 16.9497V18.4108H4.83594V17.6711L7.9173 13.3792H5.02156V11.9182H10.4232V12.6944L7.30474 16.9497H10.4325Z" fill="white"/>
<path d="M13.4214 18.5295C13.0502 18.5295 12.716 18.4686 12.419 18.3469C12.122 18.219 11.8684 18.0425 11.658 17.8173C11.4538 17.5859 11.2929 17.3089 11.1754 16.9863C11.064 16.6636 11.0083 16.3044 11.0083 15.9087C11.0083 15.5069 11.064 15.1447 11.1754 14.822C11.2929 14.4933 11.4538 14.2163 11.658 13.9911C11.8622 13.7597 12.1066 13.5832 12.3912 13.4614C12.682 13.3336 13.0038 13.2697 13.3564 13.2697C13.6039 13.2697 13.8545 13.3092 14.1082 13.3884C14.3681 13.4614 14.5908 13.5862 14.7765 13.7628V13.4066H16.3543V18.4108H14.8136V17.9908C14.7208 18.1003 14.6156 18.1886 14.498 18.2556C14.3867 18.3225 14.2691 18.3773 14.1453 18.4199C14.0216 18.4626 13.8978 18.49 13.7741 18.5021C13.6503 18.5204 13.5328 18.5295 13.4214 18.5295ZM13.8298 17.1506C14.034 17.1506 14.2227 17.108 14.3959 17.0228C14.5692 16.9315 14.7084 16.7884 14.8136 16.5936V15.1873C14.7208 15.0169 14.5816 14.886 14.3959 14.7947C14.2103 14.7033 14.0092 14.6577 13.7927 14.6577C13.4585 14.6577 13.1863 14.7642 12.9759 14.9773C12.7655 15.1843 12.6604 15.4917 12.6604 15.8996C12.6604 16.2892 12.7624 16.5966 12.9666 16.8219C13.1708 17.0411 13.4585 17.1506 13.8298 17.1506Z" fill="white"/>
<path d="M17.3948 11.4707H19.0004V18.4108H17.3948V11.4707Z" fill="white"/>
<path d="M22.6487 18.5295C22.2218 18.5295 21.8351 18.4686 21.4886 18.3469C21.1421 18.2251 20.8451 18.0516 20.5976 17.8264C20.3501 17.6011 20.1583 17.3272 20.0222 17.0045C19.8922 16.6758 19.8272 16.3105 19.8272 15.9087C19.8272 15.5069 19.8922 15.1447 20.0222 14.822C20.1583 14.4994 20.3501 14.2254 20.5976 14.0002C20.8451 13.7689 21.1421 13.5923 21.4886 13.4706C21.8351 13.3427 22.2218 13.2788 22.6487 13.2788C23.0757 13.2788 23.4593 13.3427 23.7996 13.4706C24.1461 13.5923 24.4431 13.7689 24.6906 14.0002C24.9381 14.2254 25.1268 14.4994 25.2567 14.822C25.3929 15.1447 25.4609 15.5069 25.4609 15.9087C25.4609 16.3105 25.3929 16.6758 25.2567 17.0045C25.1268 17.3272 24.9381 17.6011 24.6906 17.8264C24.4431 18.0516 24.1461 18.2251 23.7996 18.3469C23.4593 18.4686 23.0757 18.5295 22.6487 18.5295ZM22.6487 17.1141C23.0014 17.1141 23.2829 17.0076 23.4933 16.7945C23.7037 16.5753 23.8089 16.2801 23.8089 15.9087C23.8089 15.5435 23.7037 15.2512 23.4933 15.0321C23.2829 14.8068 23.0014 14.6942 22.6487 14.6942C22.296 14.6942 22.0114 14.8068 21.7949 15.0321C21.5845 15.2512 21.4793 15.5435 21.4793 15.9087C21.4793 16.2801 21.5845 16.5753 21.7949 16.7945C22.0114 17.0076 22.296 17.1141 22.6487 17.1141Z" fill="white"/>
</svg>
