<svg width="30" height="30" viewBox="0 0 30 30" fill="none" xmlns="http://www.w3.org/2000/svg">
<rect width="30" height="30" rx="15" fill="#4BAD4C"/>
<path d="M23.3452 10.8736C23.1493 10.1373 22.5699 9.55636 21.8327 9.35727C20.4997 9 15.1516 9 15.1516 9C15.1516 9 9.80611 9 8.47043 9.35727C7.73594 9.55364 7.15651 10.1345 6.95793 10.8736C6.60156 12.21 6.60156 15 6.60156 15C6.60156 15 6.60156 17.79 6.95793 19.1264C7.15379 19.8627 7.73322 20.4436 8.47043 20.6427C9.80611 21 15.1516 21 15.1516 21C15.1516 21 20.4997 21 21.8327 20.6427C22.5672 20.4464 23.1466 19.8655 23.3452 19.1264C23.7016 17.79 23.7016 15 23.7016 15C23.7016 15 23.7016 12.21 23.3452 10.8736Z" fill="white"/>
<path d="M13.4432 17.5718L17.8855 15L13.4432 12.4282V17.5718Z" fill="#4BAD4C"/>
</svg>
